<svg xmlns="http://www.w3.org/2000/svg" xmlns:xlink="http://www.w3.org/1999/xlink" zoomAndPan="magnify" preserveAspectRatio="xMidYMid meet" version="1.0" viewBox="6.56 123.43 343.68 127.79"><defs><g/><clipPath id="40f95907c4"><path d="M 8 130.882812 L 56 130.882812 L 56 183 L 8 183 Z M 8 130.882812 " clip-rule="nonzero"/></clipPath><clipPath id="f441a890d6"><path d="M 55 196 L 103 196 L 103 248.144531 L 55 248.144531 Z M 55 196 " clip-rule="nonzero"/></clipPath><clipPath id="f8939a5fb6"><path d="M 68 153 L 106.449219 153 L 106.449219 224 L 68 224 Z M 68 153 " clip-rule="nonzero"/></clipPath><clipPath id="6606f4ca2b"><path d="M 6.558594 153 L 45 153 L 45 223 L 6.558594 223 Z M 6.558594 153 " clip-rule="nonzero"/></clipPath></defs><g clip-path="url(#40f95907c4)"><path fill="#004aad" d="M 55.804688 138.121094 L 55.804688 175.78125 C 55.804688 176.414062 55.722656 177.035156 55.558594 177.644531 C 55.394531 178.257812 55.15625 178.835938 54.839844 179.382812 C 54.527344 179.929688 54.144531 180.425781 53.699219 180.871094 C 53.253906 181.316406 52.757812 181.699219 52.214844 182.015625 C 51.667969 182.332031 51.089844 182.570312 50.484375 182.734375 C 49.875 182.898438 49.257812 182.976562 48.625 182.976562 C 47.996094 182.976562 47.378906 182.894531 46.769531 182.730469 C 46.160156 182.566406 45.585938 182.328125 45.039062 182.011719 L 12.535156 163.179688 C 11.992188 162.863281 11.496094 162.484375 11.050781 162.035156 C 10.605469 161.589844 10.222656 161.09375 9.910156 160.546875 C 9.59375 160 9.355469 159.421875 9.191406 158.808594 C 9.027344 158.199219 8.945312 157.578125 8.945312 156.949219 C 8.945312 156.316406 9.027344 155.695312 9.191406 155.085938 C 9.355469 154.472656 9.59375 153.894531 9.910156 153.347656 C 10.222656 152.800781 10.605469 152.304688 11.050781 151.859375 C 11.496094 151.414062 11.992188 151.03125 12.535156 150.714844 L 45.039062 131.890625 C 45.585938 131.578125 46.160156 131.335938 46.769531 131.171875 C 47.378906 131.007812 47.996094 130.925781 48.625 130.925781 C 49.257812 130.925781 49.875 131.007812 50.484375 131.171875 C 51.089844 131.335938 51.667969 131.574219 52.214844 131.890625 C 52.757812 132.207031 53.253906 132.585938 53.699219 133.03125 C 54.144531 133.480469 54.527344 133.976562 54.839844 134.523438 C 55.15625 135.070312 55.394531 135.648438 55.558594 136.257812 C 55.722656 136.867188 55.804688 137.488281 55.804688 138.121094 Z M 55.804688 138.121094 " fill-opacity="1" fill-rule="nonzero"/></g><g clip-path="url(#f441a890d6)"><path fill="#004aad" d="M 55.585938 203.503906 L 55.585938 240.839844 C 55.585938 241.15625 55.605469 241.472656 55.648438 241.789062 C 55.691406 242.105469 55.75 242.417969 55.832031 242.726562 C 55.914062 243.035156 56.019531 243.335938 56.140625 243.628906 C 56.261719 243.921875 56.402344 244.210938 56.558594 244.484375 C 56.71875 244.761719 56.894531 245.027344 57.085938 245.277344 C 57.28125 245.53125 57.488281 245.769531 57.714844 245.996094 C 57.9375 246.222656 58.175781 246.429688 58.429688 246.625 C 58.679688 246.820312 58.945312 246.996094 59.21875 247.15625 C 59.496094 247.316406 59.777344 247.457031 60.074219 247.578125 C 60.367188 247.699219 60.664062 247.804688 60.972656 247.886719 C 61.28125 247.96875 61.589844 248.03125 61.90625 248.074219 C 62.21875 248.113281 62.535156 248.136719 62.855469 248.136719 C 63.171875 248.136719 63.488281 248.117188 63.804688 248.074219 C 64.117188 248.035156 64.429688 247.972656 64.738281 247.890625 C 65.042969 247.808594 65.34375 247.707031 65.636719 247.585938 C 65.929688 247.464844 66.214844 247.324219 66.492188 247.164062 L 98.707031 228.492188 C 98.984375 228.332031 99.246094 228.15625 99.496094 227.960938 C 99.746094 227.765625 99.984375 227.554688 100.207031 227.332031 C 100.433594 227.105469 100.640625 226.867188 100.832031 226.613281 C 101.027344 226.359375 101.203125 226.097656 101.359375 225.820312 C 101.519531 225.546875 101.65625 225.261719 101.777344 224.964844 C 101.898438 224.671875 102 224.371094 102.082031 224.0625 C 102.164062 223.757812 102.226562 223.445312 102.269531 223.128906 C 102.308594 222.816406 102.328125 222.5 102.328125 222.179688 C 102.328125 221.863281 102.308594 221.546875 102.269531 221.230469 C 102.226562 220.914062 102.164062 220.601562 102.082031 220.296875 C 102 219.988281 101.898438 219.6875 101.777344 219.394531 C 101.65625 219.097656 101.519531 218.8125 101.359375 218.539062 C 101.203125 218.261719 101.027344 218 100.832031 217.746094 C 100.640625 217.492188 100.433594 217.253906 100.207031 217.027344 C 99.984375 216.804688 99.746094 216.59375 99.496094 216.398438 C 99.246094 216.203125 98.984375 216.027344 98.707031 215.867188 L 66.492188 197.207031 C 66.214844 197.046875 65.933594 196.90625 65.640625 196.785156 C 65.347656 196.664062 65.046875 196.5625 64.738281 196.480469 C 64.433594 196.398438 64.125 196.335938 63.808594 196.292969 C 63.496094 196.253906 63.179688 196.234375 62.863281 196.234375 C 62.542969 196.234375 62.230469 196.253906 61.914062 196.296875 C 61.601562 196.335938 61.289062 196.398438 60.984375 196.480469 C 60.675781 196.5625 60.378906 196.664062 60.085938 196.785156 C 59.792969 196.90625 59.507812 197.046875 59.230469 197.207031 C 58.957031 197.363281 58.695312 197.539062 58.441406 197.734375 C 58.191406 197.925781 57.953125 198.136719 57.726562 198.359375 C 57.503906 198.585938 57.292969 198.824219 57.101562 199.074219 C 56.90625 199.328125 56.730469 199.589844 56.570312 199.867188 C 56.410156 200.140625 56.269531 200.425781 56.148438 200.71875 C 56.027344 201.011719 55.921875 201.3125 55.839844 201.621094 C 55.757812 201.925781 55.695312 202.238281 55.652344 202.550781 C 55.609375 202.867188 55.585938 203.183594 55.585938 203.503906 Z M 55.585938 203.503906 " fill-opacity="1" fill-rule="nonzero"/></g><g clip-path="url(#f8939a5fb6)"><path fill="#ffffff" d="M 68.863281 203.613281 L 86.84375 190.4375 L 90.613281 193.289062 L 73.53125 206.046875 L 73.550781 214.246094 L 99.824219 194.738281 L 75.996094 178.292969 L 69.121094 173.53125 L 69.023438 165.175781 L 68.984375 161.660156 L 68.96875 160.425781 L 68.957031 158.46875 L 68.941406 153.617188 L 106.449219 179.058594 L 106.449219 184.40625 L 73.371094 161.980469 L 73.519531 171.183594 L 106.265625 193.765625 L 106.199219 195.410156 L 75.792969 218.457031 L 68.925781 223.207031 Z M 68.863281 203.613281 " fill-opacity="1" fill-rule="nonzero"/></g><g clip-path="url(#6606f4ca2b)"><path fill="#ffffff" d="M 44.152344 172.757812 L 26.171875 185.9375 L 22.402344 183.082031 L 39.480469 170.324219 L 39.464844 162.128906 L 13.1875 181.636719 L 37.015625 198.078125 L 43.890625 202.839844 L 43.988281 211.203125 L 44.03125 214.710938 L 44.042969 215.949219 L 44.054688 217.90625 L 44.070312 222.753906 L 6.558594 197.3125 L 6.558594 191.964844 L 39.640625 214.390625 L 39.488281 205.191406 L 6.742188 182.605469 L 6.816406 180.964844 L 37.21875 157.914062 L 44.082031 153.164062 Z M 44.152344 172.757812 " fill-opacity="1" fill-rule="nonzero"/></g><g fill="#ffffff" fill-opacity="1"><g transform="translate(148.988666, 160.586026)"><g><path d="M 5.859375 0 L 9.558594 0 L 9.558594 -12.8125 L 14.71875 -12.8125 L 14.71875 -16.277344 L 0.699219 -16.277344 L 0.699219 -12.8125 L 5.859375 -12.8125 Z M 5.859375 0 "/></g></g></g><g fill="#ffffff" fill-opacity="1"><g transform="translate(164.399368, 160.586026)"><g><path d="M 8.601562 0.324219 C 12.835938 0.324219 15.417969 -2.324219 15.417969 -6.695312 L 15.417969 -16.277344 L 11.71875 -16.277344 L 11.71875 -6.953125 C 11.71875 -4.464844 10.671875 -3.1875 8.601562 -3.1875 C 6.535156 -3.1875 5.488281 -4.464844 5.488281 -6.953125 L 5.488281 -16.277344 L 1.789062 -16.277344 L 1.789062 -6.695312 C 1.789062 -2.324219 4.371094 0.324219 8.601562 0.324219 Z M 8.601562 0.324219 "/></g></g></g><g fill="#ffffff" fill-opacity="1"><g transform="translate(181.59987, 160.586026)"><g><path d="M 1.953125 0 L 5.652344 0 L 5.652344 -5.070312 L 8.09375 -5.070312 L 11 0 L 15.277344 0 L 11.90625 -5.652344 C 13.859375 -6.511719 14.996094 -8.277344 14.996094 -10.671875 C 14.996094 -14.136719 12.625 -16.277344 8.90625 -16.277344 L 1.953125 -16.277344 Z M 5.605469 -8.183594 L 5.605469 -13.113281 L 8.417969 -13.113281 C 10.230469 -13.113281 11.253906 -12.230469 11.253906 -10.648438 C 11.253906 -9.070312 10.230469 -8.183594 8.417969 -8.183594 Z M 5.605469 -8.183594 "/></g></g></g><g fill="#ffffff" fill-opacity="1"><g transform="translate(197.96358, 160.586026)"><g><path d="M 1.953125 0 L 5.652344 0 L 5.652344 -16.277344 L 1.953125 -16.277344 Z M 1.953125 0 "/></g></g></g><g fill="#ffffff" fill-opacity="1"><g transform="translate(205.564336, 160.586026)"><g><path d="M 1.953125 0 L 5.628906 0 L 5.628906 -9.976562 L 12.8125 0 L 15.953125 0 L 15.953125 -16.277344 L 12.277344 -16.277344 L 12.277344 -6.371094 L 5.09375 -16.277344 L 1.953125 -16.277344 Z M 1.953125 0 "/></g></g></g><g fill="#ffffff" fill-opacity="1"><g transform="translate(223.462144, 160.586026)"><g><path d="M 9.535156 0.324219 C 14.90625 0.324219 18.371094 -3.652344 17.996094 -9.230469 L 8.8125 -9.230469 L 8.8125 -6.371094 L 14.089844 -6.371094 C 13.625 -4.394531 11.953125 -3.070312 9.582031 -3.070312 C 6.605469 -3.070312 4.695312 -5.207031 4.695312 -8.136719 C 4.695312 -11.113281 6.671875 -13.207031 9.535156 -13.207031 C 11.347656 -13.207031 12.859375 -12.371094 13.648438 -10.953125 L 17.625 -10.953125 C 16.648438 -14.371094 13.417969 -16.601562 9.464844 -16.601562 C 4.511719 -16.601562 1 -13.089844 1 -8.136719 C 1 -3.164062 4.535156 0.324219 9.535156 0.324219 Z M 9.535156 0.324219 "/></g></g></g><g fill="#ffffff" fill-opacity="1"><g transform="translate(242.429178, 160.586026)"><g/></g></g><g fill="#ffffff" fill-opacity="1"><g transform="translate(247.891504, 160.586026)"><g><path d="M 9.417969 0.324219 C 13.695312 0.324219 17.019531 -2.277344 17.835938 -6.230469 L 14.019531 -6.230469 C 13.347656 -4.371094 11.625 -3.1875 9.488281 -3.1875 C 6.71875 -3.1875 4.765625 -5.207031 4.765625 -8.136719 C 4.765625 -11.066406 6.742188 -13.089844 9.511719 -13.089844 C 11.578125 -13.089844 13.277344 -11.976562 13.90625 -10.183594 L 17.71875 -10.183594 C 16.789062 -14.089844 13.53125 -16.601562 9.394531 -16.601562 C 4.464844 -16.601562 1 -13.113281 1 -8.136719 C 1 -3.164062 4.464844 0.324219 9.417969 0.324219 Z M 9.417969 0.324219 "/></g></g></g><g fill="#ffffff" fill-opacity="1"><g transform="translate(266.649346, 160.586026)"><g><path d="M 1.953125 0 L 12.765625 0 L 12.765625 -3.464844 L 5.652344 -3.464844 L 5.652344 -16.277344 L 1.953125 -16.277344 Z M 1.953125 0 "/></g></g></g><g fill="#ffffff" fill-opacity="1"><g transform="translate(280.037837, 160.586026)"><g><path d="M 8.601562 0.324219 C 12.835938 0.324219 15.417969 -2.324219 15.417969 -6.695312 L 15.417969 -16.277344 L 11.71875 -16.277344 L 11.71875 -6.953125 C 11.71875 -4.464844 10.671875 -3.1875 8.601562 -3.1875 C 6.535156 -3.1875 5.488281 -4.464844 5.488281 -6.953125 L 5.488281 -16.277344 L 1.789062 -16.277344 L 1.789062 -6.695312 C 1.789062 -2.324219 4.371094 0.324219 8.601562 0.324219 Z M 8.601562 0.324219 "/></g></g></g><g fill="#ffffff" fill-opacity="1"><g transform="translate(297.238339, 160.586026)"><g><path d="M 1.953125 0 L 9.601562 0 C 12.90625 0 15.136719 -1.8125 15.136719 -4.558594 C 15.136719 -6.300781 14.230469 -7.695312 12.695312 -8.371094 C 13.929688 -9.089844 14.648438 -10.371094 14.648438 -11.90625 C 14.648438 -14.578125 12.53125 -16.277344 9.230469 -16.277344 L 1.953125 -16.277344 Z M 5.605469 -2.929688 L 5.605469 -6.835938 L 9.046875 -6.835938 C 10.511719 -6.835938 11.347656 -6.117188 11.347656 -4.882812 C 11.347656 -3.652344 10.511719 -2.929688 9.046875 -2.929688 Z M 5.605469 -9.648438 L 5.605469 -13.347656 L 8.671875 -13.347656 C 10.089844 -13.347656 10.882812 -12.695312 10.882812 -11.511719 C 10.882812 -10.324219 10.089844 -9.648438 8.671875 -9.648438 Z M 5.605469 -9.648438 "/></g></g></g><g fill="#ffffff" fill-opacity="1"><g transform="translate(313.253396, 160.586026)"><g/></g></g><g fill="#ffffff" fill-opacity="1"><g transform="translate(318.715722, 160.586026)"><g><path d="M 9.671875 0.324219 C 14.765625 0.324219 18.371094 -3.164062 18.371094 -8.136719 C 18.371094 -13.113281 14.765625 -16.601562 9.671875 -16.601562 C 4.582031 -16.601562 1 -13.113281 1 -8.136719 C 1 -3.164062 4.582031 0.324219 9.671875 0.324219 Z M 4.765625 -8.136719 C 4.765625 -11.066406 6.789062 -13.089844 9.671875 -13.089844 C 12.578125 -13.089844 14.578125 -11.066406 14.578125 -8.136719 C 14.578125 -5.207031 12.578125 -3.1875 9.671875 -3.1875 C 6.789062 -3.1875 4.765625 -5.207031 4.765625 -8.136719 Z M 4.765625 -8.136719 "/></g></g></g><g fill="#ffffff" fill-opacity="1"><g transform="translate(338.077897, 160.586026)"><g><path d="M 1.953125 0 L 5.652344 0 L 5.652344 -5.605469 L 11.554688 -5.605469 L 11.554688 -8.859375 L 5.652344 -8.859375 L 5.652344 -12.929688 L 12.160156 -12.929688 L 12.160156 -16.277344 L 1.953125 -16.277344 Z M 1.953125 0 "/></g></g></g><g fill="#ffffff" fill-opacity="1"><g transform="translate(148.988666, 193.161442)"><g><path d="M 1.953125 0 L 5.652344 0 L 5.652344 -4.535156 L 8.324219 -4.535156 C 12.253906 -4.535156 14.789062 -6.835938 14.789062 -10.394531 C 14.789062 -13.976562 12.253906 -16.277344 8.324219 -16.277344 L 1.953125 -16.277344 Z M 5.628906 -7.71875 L 5.628906 -13.042969 L 8.023438 -13.042969 C 9.953125 -13.042969 11.023438 -12.066406 11.023438 -10.371094 C 11.023438 -8.671875 9.953125 -7.71875 8.023438 -7.71875 Z M 5.628906 -7.71875 "/></g></g></g><g fill="#ffffff" fill-opacity="1"><g transform="translate(164.445855, 193.161442)"><g><path d="M 1.953125 0 L 5.652344 0 L 5.652344 -5.070312 L 8.09375 -5.070312 L 11 0 L 15.277344 0 L 11.90625 -5.652344 C 13.859375 -6.511719 14.996094 -8.277344 14.996094 -10.671875 C 14.996094 -14.136719 12.625 -16.277344 8.90625 -16.277344 L 1.953125 -16.277344 Z M 5.605469 -8.183594 L 5.605469 -13.113281 L 8.417969 -13.113281 C 10.230469 -13.113281 11.253906 -12.230469 11.253906 -10.648438 C 11.253906 -9.070312 10.230469 -8.183594 8.417969 -8.183594 Z M 5.605469 -8.183594 "/></g></g></g><g fill="#ffffff" fill-opacity="1"><g transform="translate(180.809566, 193.161442)"><g><path d="M 9.671875 0.324219 C 14.765625 0.324219 18.371094 -3.164062 18.371094 -8.136719 C 18.371094 -13.113281 14.765625 -16.601562 9.671875 -16.601562 C 4.582031 -16.601562 1 -13.113281 1 -8.136719 C 1 -3.164062 4.582031 0.324219 9.671875 0.324219 Z M 4.765625 -8.136719 C 4.765625 -11.066406 6.789062 -13.089844 9.671875 -13.089844 C 12.578125 -13.089844 14.578125 -11.066406 14.578125 -8.136719 C 14.578125 -5.207031 12.578125 -3.1875 9.671875 -3.1875 C 6.789062 -3.1875 4.765625 -5.207031 4.765625 -8.136719 Z M 4.765625 -8.136719 "/></g></g></g><g fill="#ffffff" fill-opacity="1"><g transform="translate(200.17174, 193.161442)"><g><path d="M 9.535156 0.324219 C 14.90625 0.324219 18.371094 -3.652344 17.996094 -9.230469 L 8.8125 -9.230469 L 8.8125 -6.371094 L 14.089844 -6.371094 C 13.625 -4.394531 11.953125 -3.070312 9.582031 -3.070312 C 6.605469 -3.070312 4.695312 -5.207031 4.695312 -8.136719 C 4.695312 -11.113281 6.671875 -13.207031 9.535156 -13.207031 C 11.347656 -13.207031 12.859375 -12.371094 13.648438 -10.953125 L 17.625 -10.953125 C 16.648438 -14.371094 13.417969 -16.601562 9.464844 -16.601562 C 4.511719 -16.601562 1 -13.089844 1 -8.136719 C 1 -3.164062 4.535156 0.324219 9.535156 0.324219 Z M 9.535156 0.324219 "/></g></g></g><g fill="#ffffff" fill-opacity="1"><g transform="translate(219.138775, 193.161442)"><g><path d="M 1.953125 0 L 5.652344 0 L 5.652344 -5.070312 L 8.09375 -5.070312 L 11 0 L 15.277344 0 L 11.90625 -5.652344 C 13.859375 -6.511719 14.996094 -8.277344 14.996094 -10.671875 C 14.996094 -14.136719 12.625 -16.277344 8.90625 -16.277344 L 1.953125 -16.277344 Z M 5.605469 -8.183594 L 5.605469 -13.113281 L 8.417969 -13.113281 C 10.230469 -13.113281 11.253906 -12.230469 11.253906 -10.648438 C 11.253906 -9.070312 10.230469 -8.183594 8.417969 -8.183594 Z M 5.605469 -8.183594 "/></g></g></g><g fill="#ffffff" fill-opacity="1"><g transform="translate(235.502485, 193.161442)"><g><path d="M 0.210938 0 L 4.164062 0 L 5.253906 -2.8125 L 11.71875 -2.8125 L 12.8125 0 L 16.765625 0 L 10.300781 -16.277344 L 6.671875 -16.277344 Z M 6.207031 -5.71875 L 8.488281 -11.671875 L 10.789062 -5.71875 Z M 6.207031 -5.71875 "/></g></g></g><g fill="#ffffff" fill-opacity="1"><g transform="translate(252.470528, 193.161442)"><g><path d="M 1.953125 0 L 5.628906 0 L 5.628906 -9.8125 L 9.582031 -4.023438 L 12.136719 -4.023438 L 16.089844 -9.789062 L 16.089844 0 L 19.765625 0 L 19.765625 -16.277344 L 16.648438 -16.277344 L 10.882812 -7.835938 L 5.09375 -16.277344 L 1.953125 -16.277344 Z M 1.953125 0 "/></g></g></g><g fill="#ffffff" fill-opacity="1"><g transform="translate(274.180347, 193.161442)"><g><path d="M 1.953125 0 L 5.628906 0 L 5.628906 -9.8125 L 9.582031 -4.023438 L 12.136719 -4.023438 L 16.089844 -9.789062 L 16.089844 0 L 19.765625 0 L 19.765625 -16.277344 L 16.648438 -16.277344 L 10.882812 -7.835938 L 5.09375 -16.277344 L 1.953125 -16.277344 Z M 1.953125 0 "/></g></g></g><g fill="#ffffff" fill-opacity="1"><g transform="translate(295.890166, 193.161442)"><g><path d="M 1.953125 0 L 12.90625 0 L 12.90625 -3.140625 L 5.628906 -3.140625 L 5.628906 -6.695312 L 12.023438 -6.695312 L 12.023438 -9.789062 L 5.628906 -9.789062 L 5.628906 -13.160156 L 12.648438 -13.160156 L 12.648438 -16.277344 L 1.953125 -16.277344 Z M 1.953125 0 "/></g></g></g><g fill="#ffffff" fill-opacity="1"><g transform="translate(309.975963, 193.161442)"><g><path d="M 1.953125 0 L 5.652344 0 L 5.652344 -5.070312 L 8.09375 -5.070312 L 11 0 L 15.277344 0 L 11.90625 -5.652344 C 13.859375 -6.511719 14.996094 -8.277344 14.996094 -10.671875 C 14.996094 -14.136719 12.625 -16.277344 8.90625 -16.277344 L 1.953125 -16.277344 Z M 5.605469 -8.183594 L 5.605469 -13.113281 L 8.417969 -13.113281 C 10.230469 -13.113281 11.253906 -12.230469 11.253906 -10.648438 C 11.253906 -9.070312 10.230469 -8.183594 8.417969 -8.183594 Z M 5.605469 -8.183594 "/></g></g></g><g fill="#ffffff" fill-opacity="1"><g transform="translate(326.339674, 193.161442)"><g><path d="M 7.625 0.324219 C 11.488281 0.324219 13.859375 -1.511719 13.859375 -4.582031 C 13.859375 -7.160156 12.160156 -8.695312 8.113281 -9.648438 C 5.628906 -10.230469 4.765625 -10.859375 4.765625 -11.859375 C 4.765625 -12.929688 5.71875 -13.578125 7.277344 -13.578125 C 8.976562 -13.578125 10 -12.695312 10 -11.230469 L 13.554688 -11.230469 C 13.554688 -14.507812 11.089844 -16.601562 7.230469 -16.601562 C 3.488281 -16.601562 1.164062 -14.765625 1.164062 -11.789062 C 1.164062 -9.136719 2.953125 -7.558594 6.765625 -6.742188 C 9.070312 -6.253906 10.113281 -5.582031 10.113281 -4.441406 C 10.113281 -3.347656 9.136719 -2.71875 7.605469 -2.71875 C 5.8125 -2.71875 4.652344 -3.628906 4.652344 -5.183594 L 1.023438 -5.183594 C 1.023438 -1.8125 3.535156 0.324219 7.625 0.324219 Z M 7.625 0.324219 "/></g></g></g><g fill="#ffffff" fill-opacity="1"><g transform="translate(148.988666, 225.736857)"><g><path d="M 1.953125 0 L 5.628906 0 L 5.628906 -9.976562 L 12.8125 0 L 15.953125 0 L 15.953125 -16.277344 L 12.277344 -16.277344 L 12.277344 -6.371094 L 5.09375 -16.277344 L 1.953125 -16.277344 Z M 1.953125 0 "/></g></g></g><g fill="#ffffff" fill-opacity="1"><g transform="translate(166.886474, 225.736857)"><g><path d="M 1.953125 0 L 5.652344 0 L 5.652344 -16.277344 L 1.953125 -16.277344 Z M 1.953125 0 "/></g></g></g><g fill="#ffffff" fill-opacity="1"><g transform="translate(174.487229, 225.736857)"><g><path d="M 5.859375 0 L 9.558594 0 L 9.558594 -12.8125 L 14.71875 -12.8125 L 14.71875 -16.277344 L 0.699219 -16.277344 L 0.699219 -12.8125 L 5.859375 -12.8125 Z M 5.859375 0 "/></g></g></g><g fill="#ffffff" fill-opacity="1"><g transform="translate(189.897931, 225.736857)"><g><path d="M 1.953125 0 L 5.652344 0 L 5.652344 -5.070312 L 8.09375 -5.070312 L 11 0 L 15.277344 0 L 11.90625 -5.652344 C 13.859375 -6.511719 14.996094 -8.277344 14.996094 -10.671875 C 14.996094 -14.136719 12.625 -16.277344 8.90625 -16.277344 L 1.953125 -16.277344 Z M 5.605469 -8.183594 L 5.605469 -13.113281 L 8.417969 -13.113281 C 10.230469 -13.113281 11.253906 -12.230469 11.253906 -10.648438 C 11.253906 -9.070312 10.230469 -8.183594 8.417969 -8.183594 Z M 5.605469 -8.183594 "/></g></g></g><g fill="#ffffff" fill-opacity="1"><g transform="translate(206.261642, 225.736857)"><g><path d="M 1.953125 0 L 5.652344 0 L 5.652344 -5.070312 L 8.09375 -5.070312 L 11 0 L 15.277344 0 L 11.90625 -5.652344 C 13.859375 -6.511719 14.996094 -8.277344 14.996094 -10.671875 C 14.996094 -14.136719 12.625 -16.277344 8.90625 -16.277344 L 1.953125 -16.277344 Z M 5.605469 -8.183594 L 5.605469 -13.113281 L 8.417969 -13.113281 C 10.230469 -13.113281 11.253906 -12.230469 11.253906 -10.648438 C 11.253906 -9.070312 10.230469 -8.183594 8.417969 -8.183594 Z M 5.605469 -8.183594 "/></g></g></g><path stroke-linecap="butt" transform="matrix(0.000000000000000066, 1.082659, -1.085776, 0.000000000000000066, 130.018561, 125.432644)" fill="none" stroke-linejoin="miter" d="M 0.000877457 1.999404 L 114.335223 1.999404 " stroke="#ffffff" stroke-width="4" stroke-opacity="1" stroke-miterlimit="4"/></svg>